# xmcd
#
# Track frame offsets: 
#        150
#        15630
#        30796
#        41692
#        59446
#        73953
#        90601
#        109672
#        123616
#
# Disc length: 1864 seconds
#
# Revision: 0
# Processed by: cddbd v1.5.1PL2 Copyright (c) Steve Scherf et al.
# Submitted via: ExactAudioCopy v0.95b4
#
DISCID=74074609
DTITLE=Michael Bram and The Alternators - Michael Bram and The Alternators
DYEAR=2006
DGENRE=Blues
TTITLE0=Watch Out!
TTITLE1=Altered States Blues
TTITLE2=Leroy's Back In Town
TTITLE3=Blackjack Blues
TTITLE4=It Don't Matter Where You Get Your Appetite
TTITLE5=Too Much Whiskey
TTITLE6=Scared Of The Man In Blue
TTITLE7=Weed Smokin', Tequila Drinkin'
TTITLE8=Gotta Get A New Job
EXTD=
EXTT0=
EXTT1=
EXTT2=
EXTT3=
EXTT4=
EXTT5=
EXTT6=
EXTT7=
EXTT8=
PLAYORDER=
